<svg xmlns="http://www.w3.org/2000/svg" xmlns:xlink="http://www.w3.org/1999/xlink" width="389" height="261.403" viewBox="0 0 389 261.403"><defs><filter id="a" x="0" y="0" width="389" height="261.403" filterUnits="userSpaceOnUse"><feOffset dy="15" input="SourceAlpha"/><feGaussianBlur stdDeviation="12.5" result="b"/><feFlood flood-opacity="0.161"/><feComposite operator="in" in2="b"/><feComposite in="SourceGraphic"/></filter></defs><g transform="translate(-3.5 22.5)"><g transform="matrix(1, 0, 0, 1, 3.5, -22.5)" filter="url(#a)"><path d="M318.747,95.008a80.778,80.778,0,0,0,1.22-14.02C319.967,36.26,283.369,0,238.223,0a81.788,81.788,0,0,0-74.989,48.7A58.369,58.369,0,0,0,66.95,93.2q0,2.7.24,5.336A46.216,46.216,0,0,0,87.711,186.4H308.289a46.245,46.245,0,0,0,10.458-91.395Z" transform="translate(-3.5 22.5)" fill="#fff"/></g></g></svg>