<svg xmlns="http://www.w3.org/2000/svg" width="311" height="325" viewBox="0 0 311 325"><path d="M311,110A110,110,0,1,1,201,0,110,110,0,0,1,311,110Z" fill="#f8be41"/><path d="M250.326,151.629a72.8,72.8,0,0,0,1.1-12.636C251.426,98.68,218.441,66,177.752,66a73.713,73.713,0,0,0-67.586,43.893A52.606,52.606,0,0,0,23.388,150q0,2.432.216,4.809A41.653,41.653,0,0,0,42.1,234H240.9a41.679,41.679,0,0,0,9.425-82.371Z" fill="#fff"/><path d="M74.5,252c-12.451,16.333-29.883,49,0,49S86.951,268.333,74.5,252Z" fill="#00bcff"/><path d="M144.5,276c-12.451,16.333-29.883,49,0,49S156.951,292.333,144.5,276Z" fill="#00bcff"/><path d="M209.5,252c-12.451,16.333-29.883,49,0,49S221.951,268.333,209.5,252Z" fill="#00bcff"/></svg>