<svg xmlns="http://www.w3.org/2000/svg" xmlns:xlink="http://www.w3.org/1999/xlink" width="389" height="340.5" viewBox="0 0 389 340.5"><defs><filter id="a" x="0" y="0" width="389" height="261.403" filterUnits="userSpaceOnUse"><feOffset dy="15" input="SourceAlpha"/><feGaussianBlur stdDeviation="12.5" result="b"/><feFlood flood-color="#b32dff" flood-opacity="0.161"/><feComposite operator="in" in2="b"/><feComposite in="SourceGraphic"/></filter><linearGradient id="c" x1="0.888" x2="0.167" y2="0.961" gradientUnits="objectBoundingBox"><stop offset="0" stop-color="#ffee94"/><stop offset="1" stop-color="#f90"/></linearGradient><linearGradient id="d" x1="0.684" x2="0.321" y2="1" xlink:href="#c"/></defs><g transform="translate(-11.5 22.5)"><g transform="matrix(1, 0, 0, 1, 11.5, -22.5)" filter="url(#a)"><path d="M326.747,95.008a80.778,80.778,0,0,0,1.22-14.02C327.967,36.26,291.369,0,246.223,0a81.788,81.788,0,0,0-74.989,48.7A58.369,58.369,0,0,0,74.95,93.2q0,2.7.24,5.336A46.216,46.216,0,0,0,95.711,186.4H316.289a46.245,46.245,0,0,0,10.458-91.395Z" transform="translate(-11.5 22.5)" fill="#fff"/></g><path d="M233.775,186.5H183.75L162,244.986h39.15L183.025,318,249,222.211H220Z" fill="url(#c)"/><path d="M142.151,216.575c-7.766,3.449-10.8,6.363-13.576,13.576-2.212-6.99-4.933-10.108-13.575-13.576,8.89-2.9,11.3-6.249,13.575-13.575C131.368,209.752,133.092,213.437,142.151,216.575Z" fill="url(#d)"/></g></svg>