<svg width="420" height="187" viewBox="0 0 420 187" fill="none" xmlns="http://www.w3.org/2000/svg">
<path d="M3.98584 3.74268V10H2.69141V5.24658L0.994141 5.69238V4.67188L3.84082 3.74268H3.98584ZM12.0166 6.3208V7.42188C12.0166 7.87663 11.9593 8.2723 11.8447 8.60889C11.7337 8.94189 11.5744 9.21761 11.3667 9.43604C11.1626 9.65446 10.9155 9.81738 10.6255 9.9248C10.339 10.0322 10.0203 10.0859 9.66943 10.0859C9.31852 10.0859 8.99805 10.0322 8.70801 9.9248C8.42155 9.81738 8.17448 9.65446 7.9668 9.43604C7.75911 9.21761 7.59798 8.94189 7.4834 8.60889C7.36882 8.2723 7.31152 7.87663 7.31152 7.42188V6.3208C7.31152 5.86605 7.36702 5.47217 7.47803 5.13916C7.59261 4.80615 7.75374 4.53044 7.96143 4.31201C8.16911 4.09001 8.41618 3.92529 8.70264 3.81787C8.9891 3.71045 9.30778 3.65674 9.65869 3.65674C10.0096 3.65674 10.3301 3.71045 10.6201 3.81787C10.9102 3.92529 11.159 4.09001 11.3667 4.31201C11.5744 4.53044 11.7337 4.80615 11.8447 5.13916C11.9593 5.47217 12.0166 5.86605 12.0166 6.3208ZM10.7168 7.52393V6.20801C10.7168 5.94661 10.6935 5.72103 10.647 5.53125C10.6004 5.33789 10.5324 5.17855 10.4429 5.05322C10.3534 4.9279 10.2424 4.83659 10.1099 4.7793C9.98096 4.71842 9.83057 4.68799 9.65869 4.68799C9.49398 4.68799 9.34538 4.71842 9.21289 4.7793C9.08398 4.83659 8.97477 4.9279 8.88525 5.05322C8.79574 5.17855 8.7277 5.33789 8.68115 5.53125C8.6346 5.72103 8.61133 5.94661 8.61133 6.20801V7.52393C8.61133 7.7889 8.6346 8.01807 8.68115 8.21143C8.7277 8.40479 8.79574 8.56413 8.88525 8.68945C8.97835 8.81478 9.09115 8.90788 9.22363 8.96875C9.35612 9.02962 9.50472 9.06006 9.66943 9.06006C9.83773 9.06006 9.98633 9.02962 10.1152 8.96875C10.2477 8.90788 10.3587 8.81478 10.4482 8.68945C10.5378 8.56413 10.604 8.40479 10.647 8.21143C10.6935 8.01807 10.7168 7.7889 10.7168 7.52393ZM18.6777 6.3208V7.42188C18.6777 7.87663 18.6204 8.2723 18.5059 8.60889C18.3949 8.94189 18.2355 9.21761 18.0278 9.43604C17.8237 9.65446 17.5767 9.81738 17.2866 9.9248C17.0002 10.0322 16.6815 10.0859 16.3306 10.0859C15.9797 10.0859 15.6592 10.0322 15.3691 9.9248C15.0827 9.81738 14.8356 9.65446 14.6279 9.43604C14.4202 9.21761 14.2591 8.94189 14.1445 8.60889C14.0299 8.2723 13.9727 7.87663 13.9727 7.42188V6.3208C13.9727 5.86605 14.0282 5.47217 14.1392 5.13916C14.2537 4.80615 14.4149 4.53044 14.6226 4.31201C14.8302 4.09001 15.0773 3.92529 15.3638 3.81787C15.6502 3.71045 15.9689 3.65674 16.3198 3.65674C16.6707 3.65674 16.9912 3.71045 17.2812 3.81787C17.5713 3.92529 17.8201 4.09001 18.0278 4.31201C18.2355 4.53044 18.3949 4.80615 18.5059 5.13916C18.6204 5.47217 18.6777 5.86605 18.6777 6.3208ZM17.3779 7.52393V6.20801C17.3779 5.94661 17.3547 5.72103 17.3081 5.53125C17.2616 5.33789 17.1935 5.17855 17.104 5.05322C17.0145 4.9279 16.9035 4.83659 16.771 4.7793C16.6421 4.71842 16.4917 4.68799 16.3198 4.68799C16.1551 4.68799 16.0065 4.71842 15.874 4.7793C15.7451 4.83659 15.6359 4.9279 15.5464 5.05322C15.4569 5.17855 15.3888 5.33789 15.3423 5.53125C15.2957 5.72103 15.2725 5.94661 15.2725 6.20801V7.52393C15.2725 7.7889 15.2957 8.01807 15.3423 8.21143C15.3888 8.40479 15.4569 8.56413 15.5464 8.68945C15.6395 8.81478 15.7523 8.90788 15.8848 8.96875C16.0173 9.02962 16.1659 9.06006 16.3306 9.06006C16.4989 9.06006 16.6475 9.02962 16.7764 8.96875C16.9089 8.90788 17.0199 8.81478 17.1094 8.68945C17.1989 8.56413 17.2651 8.40479 17.3081 8.21143C17.3547 8.01807 17.3779 7.7889 17.3779 7.52393ZM25.3389 6.3208V7.42188C25.3389 7.87663 25.2816 8.2723 25.167 8.60889C25.056 8.94189 24.8966 9.21761 24.689 9.43604C24.4849 9.65446 24.2378 9.81738 23.9478 9.9248C23.6613 10.0322 23.3426 10.0859 22.9917 10.0859C22.6408 10.0859 22.3203 10.0322 22.0303 9.9248C21.7438 9.81738 21.4967 9.65446 21.2891 9.43604C21.0814 9.21761 20.9202 8.94189 20.8057 8.60889C20.6911 8.2723 20.6338 7.87663 20.6338 7.42188V6.3208C20.6338 5.86605 20.6893 5.47217 20.8003 5.13916C20.9149 4.80615 21.076 4.53044 21.2837 4.31201C21.4914 4.09001 21.7384 3.92529 22.0249 3.81787C22.3114 3.71045 22.63 3.65674 22.981 3.65674C23.3319 3.65674 23.6523 3.71045 23.9424 3.81787C24.2324 3.92529 24.4813 4.09001 24.689 4.31201C24.8966 4.53044 25.056 4.80615 25.167 5.13916C25.2816 5.47217 25.3389 5.86605 25.3389 6.3208ZM24.0391 7.52393V6.20801C24.0391 5.94661 24.0158 5.72103 23.9692 5.53125C23.9227 5.33789 23.8547 5.17855 23.7651 5.05322C23.6756 4.9279 23.5646 4.83659 23.4321 4.7793C23.3032 4.71842 23.1528 4.68799 22.981 4.68799C22.8162 4.68799 22.6676 4.71842 22.5352 4.7793C22.4062 4.83659 22.297 4.9279 22.2075 5.05322C22.118 5.17855 22.05 5.33789 22.0034 5.53125C21.9569 5.72103 21.9336 5.94661 21.9336 6.20801V7.52393C21.9336 7.7889 21.9569 8.01807 22.0034 8.21143C22.05 8.40479 22.118 8.56413 22.2075 8.68945C22.3006 8.81478 22.4134 8.90788 22.5459 8.96875C22.6784 9.02962 22.827 9.06006 22.9917 9.06006C23.16 9.06006 23.3086 9.02962 23.4375 8.96875C23.57 8.90788 23.681 8.81478 23.7705 8.68945C23.86 8.56413 23.9263 8.40479 23.9692 8.21143C24.0158 8.01807 24.0391 7.7889 24.0391 7.52393Z" fill="#949494"/>
<path d="M43 6.5L31 6.5" stroke="#655B96"/>
<path d="M12.1968 42.2866C12.1968 42.5838 12.1359 42.8452 12.0142 43.0708C11.896 43.2928 11.7313 43.479 11.52 43.6294C11.3088 43.7798 11.0599 43.8944 10.7734 43.9731C10.487 44.0483 10.1755 44.0859 9.83887 44.0859C9.39128 44.0859 8.98844 44.0197 8.63037 43.8872C8.27588 43.7511 7.99479 43.5488 7.78711 43.2803C7.57943 43.0117 7.47559 42.6805 7.47559 42.2866C7.47559 42.0145 7.53288 41.7728 7.64746 41.5615C7.76562 41.3467 7.93034 41.1641 8.1416 41.0137C8.35645 40.8597 8.60531 40.7433 8.88818 40.6646C9.17464 40.5822 9.48796 40.541 9.82812 40.541C10.1683 40.541 10.4816 40.5822 10.7681 40.6646C11.0581 40.7433 11.3088 40.8597 11.52 41.0137C11.7349 41.1641 11.9014 41.3467 12.0195 41.5615C12.1377 41.7728 12.1968 42.0145 12.1968 42.2866ZM10.897 42.1846C10.897 42.002 10.8522 41.8462 10.7627 41.7173C10.6732 41.5884 10.5479 41.4899 10.3867 41.4219C10.2256 41.3503 10.0394 41.3145 9.82812 41.3145C9.61686 41.3145 9.43066 41.3503 9.26953 41.4219C9.11198 41.4899 8.98844 41.5884 8.89893 41.7173C8.81299 41.8462 8.77002 42.002 8.77002 42.1846C8.77002 42.3672 8.81299 42.5247 8.89893 42.6572C8.98844 42.7861 9.11377 42.8864 9.2749 42.958C9.43604 43.026 9.62402 43.0601 9.83887 43.0601C10.0501 43.0601 10.2345 43.026 10.3921 42.958C10.5532 42.8864 10.6768 42.7861 10.7627 42.6572C10.8522 42.5247 10.897 42.3672 10.897 42.1846ZM12.041 39.4077C12.041 39.6512 11.9855 39.8732 11.8745 40.0737C11.7671 40.2707 11.6149 40.4425 11.418 40.5894C11.221 40.7326 10.9883 40.8436 10.7197 40.9224C10.4548 40.9976 10.1611 41.0352 9.83887 41.0352C9.5166 41.0352 9.22119 40.9976 8.95264 40.9224C8.68408 40.8436 8.45133 40.7326 8.25439 40.5894C8.05745 40.4425 7.90348 40.2707 7.79248 40.0737C7.68506 39.8732 7.63135 39.6512 7.63135 39.4077C7.63135 39.0282 7.72445 38.7095 7.91064 38.4517C8.10042 38.1903 8.36182 37.9933 8.69482 37.8608C9.02783 37.7248 9.4056 37.6567 9.82812 37.6567C10.2578 37.6567 10.6374 37.7248 10.9668 37.8608C11.2998 37.9933 11.5612 38.1903 11.751 38.4517C11.9443 38.7095 12.041 39.0282 12.041 39.4077ZM10.7466 39.4722C10.7466 39.3146 10.709 39.1768 10.6338 39.0586C10.5586 38.9368 10.453 38.8438 10.3169 38.7793C10.1808 38.7148 10.0179 38.6826 9.82812 38.6826C9.64193 38.6826 9.48079 38.7148 9.34473 38.7793C9.21224 38.8438 9.1084 38.9351 9.0332 39.0532C8.96159 39.1678 8.92578 39.3075 8.92578 39.4722C8.92578 39.6333 8.96159 39.7747 9.0332 39.8965C9.1084 40.0182 9.21403 40.1131 9.3501 40.1812C9.48975 40.2492 9.65267 40.2832 9.83887 40.2832C10.0286 40.2832 10.1898 40.2492 10.3223 40.1812C10.4583 40.1131 10.5622 40.0182 10.6338 39.8965C10.709 39.7747 10.7466 39.6333 10.7466 39.4722ZM18.8472 40.3208V41.4219C18.8472 41.8766 18.7899 42.2723 18.6753 42.6089C18.5643 42.9419 18.4049 43.2176 18.1973 43.436C17.9932 43.6545 17.7461 43.8174 17.4561 43.9248C17.1696 44.0322 16.8509 44.0859 16.5 44.0859C16.1491 44.0859 15.8286 44.0322 15.5386 43.9248C15.2521 43.8174 15.005 43.6545 14.7974 43.436C14.5897 43.2176 14.4285 42.9419 14.314 42.6089C14.1994 42.2723 14.1421 41.8766 14.1421 41.4219V40.3208C14.1421 39.866 14.1976 39.4722 14.3086 39.1392C14.4232 38.8062 14.5843 38.5304 14.792 38.312C14.9997 38.09 15.2467 37.9253 15.5332 37.8179C15.8197 37.7104 16.1383 37.6567 16.4893 37.6567C16.8402 37.6567 17.1606 37.7104 17.4507 37.8179C17.7407 37.9253 17.9896 38.09 18.1973 38.312C18.4049 38.5304 18.5643 38.8062 18.6753 39.1392C18.7899 39.4722 18.8472 39.866 18.8472 40.3208ZM17.5474 41.5239V40.208C17.5474 39.9466 17.5241 39.721 17.4775 39.5312C17.431 39.3379 17.363 39.1785 17.2734 39.0532C17.1839 38.9279 17.0729 38.8366 16.9404 38.7793C16.8115 38.7184 16.6611 38.688 16.4893 38.688C16.3245 38.688 16.1759 38.7184 16.0435 38.7793C15.9146 38.8366 15.8053 38.9279 15.7158 39.0532C15.6263 39.1785 15.5583 39.3379 15.5117 39.5312C15.4652 39.721 15.4419 39.9466 15.4419 40.208V41.5239C15.4419 41.7889 15.4652 42.0181 15.5117 42.2114C15.5583 42.4048 15.6263 42.5641 15.7158 42.6895C15.8089 42.8148 15.9217 42.9079 16.0542 42.9688C16.1867 43.0296 16.3353 43.0601 16.5 43.0601C16.6683 43.0601 16.8169 43.0296 16.9458 42.9688C17.0783 42.9079 17.1893 42.8148 17.2788 42.6895C17.3683 42.5641 17.4346 42.4048 17.4775 42.2114C17.5241 42.0181 17.5474 41.7889 17.5474 41.5239ZM25.5083 40.3208V41.4219C25.5083 41.8766 25.451 42.2723 25.3364 42.6089C25.2254 42.9419 25.0661 43.2176 24.8584 43.436C24.6543 43.6545 24.4072 43.8174 24.1172 43.9248C23.8307 44.0322 23.512 44.0859 23.1611 44.0859C22.8102 44.0859 22.4897 44.0322 22.1997 43.9248C21.9132 43.8174 21.6662 43.6545 21.4585 43.436C21.2508 43.2176 21.0897 42.9419 20.9751 42.6089C20.8605 42.2723 20.8032 41.8766 20.8032 41.4219V40.3208C20.8032 39.866 20.8587 39.4722 20.9697 39.1392C21.0843 38.8062 21.2454 38.5304 21.4531 38.312C21.6608 38.09 21.9079 37.9253 22.1943 37.8179C22.4808 37.7104 22.7995 37.6567 23.1504 37.6567C23.5013 37.6567 23.8218 37.7104 24.1118 37.8179C24.4019 37.9253 24.6507 38.09 24.8584 38.312C25.0661 38.5304 25.2254 38.8062 25.3364 39.1392C25.451 39.4722 25.5083 39.866 25.5083 40.3208ZM24.2085 41.5239V40.208C24.2085 39.9466 24.1852 39.721 24.1387 39.5312C24.0921 39.3379 24.0241 39.1785 23.9346 39.0532C23.8451 38.9279 23.734 38.8366 23.6016 38.7793C23.4727 38.7184 23.3223 38.688 23.1504 38.688C22.9857 38.688 22.8371 38.7184 22.7046 38.7793C22.5757 38.8366 22.4665 38.9279 22.377 39.0532C22.2874 39.1785 22.2194 39.3379 22.1729 39.5312C22.1263 39.721 22.103 39.9466 22.103 40.208V41.5239C22.103 41.7889 22.1263 42.0181 22.1729 42.2114C22.2194 42.4048 22.2874 42.5641 22.377 42.6895C22.4701 42.8148 22.5828 42.9079 22.7153 42.9688C22.8478 43.0296 22.9964 43.0601 23.1611 43.0601C23.3294 43.0601 23.478 43.0296 23.6069 42.9688C23.7394 42.9079 23.8504 42.8148 23.9399 42.6895C24.0295 42.5641 24.0957 42.4048 24.1387 42.2114C24.1852 42.0181 24.2085 41.7889 24.2085 41.5239Z" fill="#949494"/>
<path d="M43 40.5H31" stroke="#655B96"/>
<path d="M11.0688 71.6675H11.2515V72.7202H11.1655C10.7824 72.7202 10.444 72.7632 10.1504 72.8491C9.86035 72.9315 9.61507 73.0586 9.41455 73.2305C9.21761 73.4023 9.06722 73.619 8.96338 73.8804C8.86312 74.1418 8.81299 74.4479 8.81299 74.7988V75.7173C8.81299 75.9393 8.83984 76.1344 8.89355 76.3027C8.95085 76.471 9.02962 76.6125 9.12988 76.7271C9.23014 76.8381 9.34831 76.9222 9.48438 76.9795C9.62402 77.0332 9.77441 77.0601 9.93555 77.0601C10.154 77.0601 10.3438 77.0117 10.5049 76.915C10.666 76.8148 10.7896 76.6805 10.8755 76.5122C10.965 76.3403 11.0098 76.1506 11.0098 75.9429C11.0098 75.728 10.9668 75.54 10.8809 75.3789C10.7985 75.2178 10.6768 75.0924 10.5156 75.0029C10.3581 74.9098 10.1647 74.8633 9.93555 74.8633C9.70638 74.8633 9.50049 74.908 9.31787 74.9976C9.13883 75.0835 8.99561 75.1945 8.88818 75.3306C8.78434 75.4666 8.72884 75.6099 8.72168 75.7603L8.37256 75.3789C8.3833 75.1497 8.46745 74.9188 8.625 74.686C8.78255 74.4497 9.00277 74.251 9.28564 74.0898C9.56852 73.9251 9.90332 73.8428 10.29 73.8428C10.7376 73.8428 11.1082 73.9359 11.4019 74.1221C11.6991 74.3083 11.9211 74.5607 12.0679 74.8794C12.2183 75.1945 12.2935 75.5454 12.2935 75.9321C12.2935 76.3403 12.1986 76.7074 12.0088 77.0332C11.819 77.3555 11.5505 77.6115 11.2031 77.8013C10.8558 77.991 10.4422 78.0859 9.9624 78.0859C9.59001 78.0859 9.25342 78.0286 8.95264 77.9141C8.65186 77.7959 8.39404 77.6294 8.1792 77.4146C7.96794 77.1961 7.80501 76.9347 7.69043 76.6304C7.57585 76.3224 7.51855 75.9769 7.51855 75.5938V75.1641C7.51855 74.6162 7.59554 74.1274 7.74951 73.6978C7.90706 73.2645 8.13623 72.8975 8.43701 72.5967C8.74137 72.2923 9.11377 72.0614 9.5542 71.9038C9.99463 71.7463 10.4995 71.6675 11.0688 71.6675ZM18.8472 74.3208V75.4219C18.8472 75.8766 18.7899 76.2723 18.6753 76.6089C18.5643 76.9419 18.4049 77.2176 18.1973 77.436C17.9932 77.6545 17.7461 77.8174 17.4561 77.9248C17.1696 78.0322 16.8509 78.0859 16.5 78.0859C16.1491 78.0859 15.8286 78.0322 15.5386 77.9248C15.2521 77.8174 15.005 77.6545 14.7974 77.436C14.5897 77.2176 14.4285 76.9419 14.314 76.6089C14.1994 76.2723 14.1421 75.8766 14.1421 75.4219V74.3208C14.1421 73.866 14.1976 73.4722 14.3086 73.1392C14.4232 72.8062 14.5843 72.5304 14.792 72.312C14.9997 72.09 15.2467 71.9253 15.5332 71.8179C15.8197 71.7104 16.1383 71.6567 16.4893 71.6567C16.8402 71.6567 17.1606 71.7104 17.4507 71.8179C17.7407 71.9253 17.9896 72.09 18.1973 72.312C18.4049 72.5304 18.5643 72.8062 18.6753 73.1392C18.7899 73.4722 18.8472 73.866 18.8472 74.3208ZM17.5474 75.5239V74.208C17.5474 73.9466 17.5241 73.721 17.4775 73.5312C17.431 73.3379 17.363 73.1785 17.2734 73.0532C17.1839 72.9279 17.0729 72.8366 16.9404 72.7793C16.8115 72.7184 16.6611 72.688 16.4893 72.688C16.3245 72.688 16.1759 72.7184 16.0435 72.7793C15.9146 72.8366 15.8053 72.9279 15.7158 73.0532C15.6263 73.1785 15.5583 73.3379 15.5117 73.5312C15.4652 73.721 15.4419 73.9466 15.4419 74.208V75.5239C15.4419 75.7889 15.4652 76.0181 15.5117 76.2114C15.5583 76.4048 15.6263 76.5641 15.7158 76.6895C15.8089 76.8148 15.9217 76.9079 16.0542 76.9688C16.1867 77.0296 16.3353 77.0601 16.5 77.0601C16.6683 77.0601 16.8169 77.0296 16.9458 76.9688C17.0783 76.9079 17.1893 76.8148 17.2788 76.6895C17.3683 76.5641 17.4346 76.4048 17.4775 76.2114C17.5241 76.0181 17.5474 75.7889 17.5474 75.5239ZM25.5083 74.3208V75.4219C25.5083 75.8766 25.451 76.2723 25.3364 76.6089C25.2254 76.9419 25.0661 77.2176 24.8584 77.436C24.6543 77.6545 24.4072 77.8174 24.1172 77.9248C23.8307 78.0322 23.512 78.0859 23.1611 78.0859C22.8102 78.0859 22.4897 78.0322 22.1997 77.9248C21.9132 77.8174 21.6662 77.6545 21.4585 77.436C21.2508 77.2176 21.0897 76.9419 20.9751 76.6089C20.8605 76.2723 20.8032 75.8766 20.8032 75.4219V74.3208C20.8032 73.866 20.8587 73.4722 20.9697 73.1392C21.0843 72.8062 21.2454 72.5304 21.4531 72.312C21.6608 72.09 21.9079 71.9253 22.1943 71.8179C22.4808 71.7104 22.7995 71.6567 23.1504 71.6567C23.5013 71.6567 23.8218 71.7104 24.1118 71.8179C24.4019 71.9253 24.6507 72.09 24.8584 72.312C25.0661 72.5304 25.2254 72.8062 25.3364 73.1392C25.451 73.4722 25.5083 73.866 25.5083 74.3208ZM24.2085 75.5239V74.208C24.2085 73.9466 24.1852 73.721 24.1387 73.5312C24.0921 73.3379 24.0241 73.1785 23.9346 73.0532C23.8451 72.9279 23.734 72.8366 23.6016 72.7793C23.4727 72.7184 23.3223 72.688 23.1504 72.688C22.9857 72.688 22.8371 72.7184 22.7046 72.7793C22.5757 72.8366 22.4665 72.9279 22.377 73.0532C22.2874 73.1785 22.2194 73.3379 22.1729 73.5312C22.1263 73.721 22.103 73.9466 22.103 74.208V75.5239C22.103 75.7889 22.1263 76.0181 22.1729 76.2114C22.2194 76.4048 22.2874 76.5641 22.377 76.6895C22.4701 76.8148 22.5828 76.9079 22.7153 76.9688C22.8478 77.0296 22.9964 77.0601 23.1611 77.0601C23.3294 77.0601 23.478 77.0296 23.6069 76.9688C23.7394 76.9079 23.8504 76.8148 23.9399 76.6895C24.0295 76.5641 24.0957 76.4048 24.1387 76.2114C24.1852 76.0181 24.2085 75.7889 24.2085 75.5239Z" fill="#949494"/>
<path d="M43 74.5H31" stroke="#655B96"/>
<path d="M12.4062 109.621V110.652H7.33594L7.28223 109.841L10.2578 105.743H11.2729L10.1558 107.563L8.58203 109.621H12.4062ZM11.5737 105.743V112H10.2793V105.743H11.5737ZM18.8472 108.321V109.422C18.8472 109.877 18.7899 110.272 18.6753 110.609C18.5643 110.942 18.4049 111.218 18.1973 111.436C17.9932 111.654 17.7461 111.817 17.4561 111.925C17.1696 112.032 16.8509 112.086 16.5 112.086C16.1491 112.086 15.8286 112.032 15.5386 111.925C15.2521 111.817 15.005 111.654 14.7974 111.436C14.5897 111.218 14.4285 110.942 14.314 110.609C14.1994 110.272 14.1421 109.877 14.1421 109.422V108.321C14.1421 107.866 14.1976 107.472 14.3086 107.139C14.4232 106.806 14.5843 106.53 14.792 106.312C14.9997 106.09 15.2467 105.925 15.5332 105.818C15.8197 105.71 16.1383 105.657 16.4893 105.657C16.8402 105.657 17.1606 105.71 17.4507 105.818C17.7407 105.925 17.9896 106.09 18.1973 106.312C18.4049 106.53 18.5643 106.806 18.6753 107.139C18.7899 107.472 18.8472 107.866 18.8472 108.321ZM17.5474 109.524V108.208C17.5474 107.947 17.5241 107.721 17.4775 107.531C17.431 107.338 17.363 107.179 17.2734 107.053C17.1839 106.928 17.0729 106.837 16.9404 106.779C16.8115 106.718 16.6611 106.688 16.4893 106.688C16.3245 106.688 16.1759 106.718 16.0435 106.779C15.9146 106.837 15.8053 106.928 15.7158 107.053C15.6263 107.179 15.5583 107.338 15.5117 107.531C15.4652 107.721 15.4419 107.947 15.4419 108.208V109.524C15.4419 109.789 15.4652 110.018 15.5117 110.211C15.5583 110.405 15.6263 110.564 15.7158 110.689C15.8089 110.815 15.9217 110.908 16.0542 110.969C16.1867 111.03 16.3353 111.06 16.5 111.06C16.6683 111.06 16.8169 111.03 16.9458 110.969C17.0783 110.908 17.1893 110.815 17.2788 110.689C17.3683 110.564 17.4346 110.405 17.4775 110.211C17.5241 110.018 17.5474 109.789 17.5474 109.524ZM25.5083 108.321V109.422C25.5083 109.877 25.451 110.272 25.3364 110.609C25.2254 110.942 25.0661 111.218 24.8584 111.436C24.6543 111.654 24.4072 111.817 24.1172 111.925C23.8307 112.032 23.512 112.086 23.1611 112.086C22.8102 112.086 22.4897 112.032 22.1997 111.925C21.9132 111.817 21.6662 111.654 21.4585 111.436C21.2508 111.218 21.0897 110.942 20.9751 110.609C20.8605 110.272 20.8032 109.877 20.8032 109.422V108.321C20.8032 107.866 20.8587 107.472 20.9697 107.139C21.0843 106.806 21.2454 106.53 21.4531 106.312C21.6608 106.09 21.9079 105.925 22.1943 105.818C22.4808 105.71 22.7995 105.657 23.1504 105.657C23.5013 105.657 23.8218 105.71 24.1118 105.818C24.4019 105.925 24.6507 106.09 24.8584 106.312C25.0661 106.53 25.2254 106.806 25.3364 107.139C25.451 107.472 25.5083 107.866 25.5083 108.321ZM24.2085 109.524V108.208C24.2085 107.947 24.1852 107.721 24.1387 107.531C24.0921 107.338 24.0241 107.179 23.9346 107.053C23.8451 106.928 23.734 106.837 23.6016 106.779C23.4727 106.718 23.3223 106.688 23.1504 106.688C22.9857 106.688 22.8371 106.718 22.7046 106.779C22.5757 106.837 22.4665 106.928 22.377 107.053C22.2874 107.179 22.2194 107.338 22.1729 107.531C22.1263 107.721 22.103 107.947 22.103 108.208V109.524C22.103 109.789 22.1263 110.018 22.1729 110.211C22.2194 110.405 22.2874 110.564 22.377 110.689C22.4701 110.815 22.5828 110.908 22.7153 110.969C22.8478 111.03 22.9964 111.06 23.1611 111.06C23.3294 111.06 23.478 111.03 23.6069 110.969C23.7394 110.908 23.8504 110.815 23.9399 110.689C24.0295 110.564 24.0957 110.405 24.1387 110.211C24.1852 110.018 24.2085 109.789 24.2085 109.524Z" fill="#949494"/>
<path d="M43 108.5H31" stroke="#655B96"/>
<path d="M12.2827 144.974V146H7.50781V145.125L9.79053 142.987C10.0269 142.768 10.2131 142.573 10.3491 142.401C10.4888 142.226 10.589 142.068 10.6499 141.929C10.7108 141.785 10.7412 141.657 10.7412 141.542C10.7412 141.291 10.6589 141.085 10.4941 140.924C10.3294 140.763 10.0931 140.683 9.78516 140.683C9.53092 140.683 9.31966 140.729 9.15137 140.822C8.98665 140.912 8.86491 141.035 8.78613 141.193C8.70736 141.35 8.66797 141.529 8.66797 141.73H7.36816C7.36816 141.35 7.46305 141.003 7.65283 140.688C7.84261 140.373 8.11475 140.122 8.46924 139.936C8.82731 139.75 9.25521 139.657 9.75293 139.657C10.2327 139.657 10.6427 139.732 10.9829 139.882C11.3267 140.033 11.5881 140.249 11.7671 140.532C11.9461 140.812 12.0356 141.143 12.0356 141.526C12.0356 141.737 11.9998 141.938 11.9282 142.127C11.8602 142.317 11.7599 142.502 11.6274 142.681C11.495 142.86 11.3338 143.042 11.144 143.229C10.9543 143.415 10.7394 143.613 10.4995 143.825L9.16748 144.974H12.2827ZM18.8472 142.321V143.422C18.8472 143.877 18.7899 144.272 18.6753 144.609C18.5643 144.942 18.4049 145.218 18.1973 145.436C17.9932 145.654 17.7461 145.817 17.4561 145.925C17.1696 146.032 16.8509 146.086 16.5 146.086C16.1491 146.086 15.8286 146.032 15.5386 145.925C15.2521 145.817 15.005 145.654 14.7974 145.436C14.5897 145.218 14.4285 144.942 14.314 144.609C14.1994 144.272 14.1421 143.877 14.1421 143.422V142.321C14.1421 141.866 14.1976 141.472 14.3086 141.139C14.4232 140.806 14.5843 140.53 14.792 140.312C14.9997 140.09 15.2467 139.925 15.5332 139.818C15.8197 139.71 16.1383 139.657 16.4893 139.657C16.8402 139.657 17.1606 139.71 17.4507 139.818C17.7407 139.925 17.9896 140.09 18.1973 140.312C18.4049 140.53 18.5643 140.806 18.6753 141.139C18.7899 141.472 18.8472 141.866 18.8472 142.321ZM17.5474 143.524V142.208C17.5474 141.947 17.5241 141.721 17.4775 141.531C17.431 141.338 17.363 141.179 17.2734 141.053C17.1839 140.928 17.0729 140.837 16.9404 140.779C16.8115 140.718 16.6611 140.688 16.4893 140.688C16.3245 140.688 16.1759 140.718 16.0435 140.779C15.9146 140.837 15.8053 140.928 15.7158 141.053C15.6263 141.179 15.5583 141.338 15.5117 141.531C15.4652 141.721 15.4419 141.947 15.4419 142.208V143.524C15.4419 143.789 15.4652 144.018 15.5117 144.211C15.5583 144.405 15.6263 144.564 15.7158 144.689C15.8089 144.815 15.9217 144.908 16.0542 144.969C16.1867 145.03 16.3353 145.06 16.5 145.06C16.6683 145.06 16.8169 145.03 16.9458 144.969C17.0783 144.908 17.1893 144.815 17.2788 144.689C17.3683 144.564 17.4346 144.405 17.4775 144.211C17.5241 144.018 17.5474 143.789 17.5474 143.524ZM25.5083 142.321V143.422C25.5083 143.877 25.451 144.272 25.3364 144.609C25.2254 144.942 25.0661 145.218 24.8584 145.436C24.6543 145.654 24.4072 145.817 24.1172 145.925C23.8307 146.032 23.512 146.086 23.1611 146.086C22.8102 146.086 22.4897 146.032 22.1997 145.925C21.9132 145.817 21.6662 145.654 21.4585 145.436C21.2508 145.218 21.0897 144.942 20.9751 144.609C20.8605 144.272 20.8032 143.877 20.8032 143.422V142.321C20.8032 141.866 20.8587 141.472 20.9697 141.139C21.0843 140.806 21.2454 140.53 21.4531 140.312C21.6608 140.09 21.9079 139.925 22.1943 139.818C22.4808 139.71 22.7995 139.657 23.1504 139.657C23.5013 139.657 23.8218 139.71 24.1118 139.818C24.4019 139.925 24.6507 140.09 24.8584 140.312C25.0661 140.53 25.2254 140.806 25.3364 141.139C25.451 141.472 25.5083 141.866 25.5083 142.321ZM24.2085 143.524V142.208C24.2085 141.947 24.1852 141.721 24.1387 141.531C24.0921 141.338 24.0241 141.179 23.9346 141.053C23.8451 140.928 23.734 140.837 23.6016 140.779C23.4727 140.718 23.3223 140.688 23.1504 140.688C22.9857 140.688 22.8371 140.718 22.7046 140.779C22.5757 140.837 22.4665 140.928 22.377 141.053C22.2874 141.179 22.2194 141.338 22.1729 141.531C22.1263 141.721 22.103 141.947 22.103 142.208V143.524C22.103 143.789 22.1263 144.018 22.1729 144.211C22.2194 144.405 22.2874 144.564 22.377 144.689C22.4701 144.815 22.5828 144.908 22.7153 144.969C22.8478 145.03 22.9964 145.06 23.1611 145.06C23.3294 145.06 23.478 145.03 23.6069 144.969C23.7394 144.908 23.8504 144.815 23.9399 144.689C24.0295 144.564 24.0957 144.405 24.1387 144.211C24.1852 144.018 24.2085 143.789 24.2085 143.524Z" fill="#949494"/>
<path d="M43 142.5H31" stroke="#655B96"/>
<path d="M43 0V159" stroke="#655B96"/>
<rect x="51" y="98.6897" width="4.96413" height="60.3103" fill="#7B61FF"/>
<rect x="83.3677" y="53.2611" width="4.96413" height="105.739" fill="#7B61FF"/>
<rect x="115.735" y="71.2759" width="4.96413" height="87.7241" fill="#7B61FF"/>
<rect x="148.103" y="71.2759" width="4.96413" height="87.7241" fill="#7B61FF"/>
<rect x="180.471" y="92.4236" width="4.96413" height="66.5763" fill="#7B61FF"/>
<rect x="212.838" y="34.463" width="4.96413" height="124.537" fill="#7B61FF"/>
<rect x="245.206" y="24.2808" width="4.96413" height="134.719" fill="#7B61FF"/>
<rect x="277.574" y="104.956" width="4.96413" height="54.0443" fill="#7B61FF"/>
<rect x="309.941" y="30.5468" width="4.96413" height="128.453" fill="#7B61FF"/>
<rect x="342.309" y="46.2118" width="4.96413" height="112.788" fill="#7B61FF"/>
<rect x="374.677" y="10.9655" width="4.96413" height="148.034" fill="#7B61FF"/>
<rect x="407.044" width="4.95562" height="159" fill="#7B61FF"/>
<path d="M43 159H420" stroke="#655B96"/>
<path d="M53.5 159V169" stroke="#655B96"/>
<path d="M46.7261 182.029V177.743H48.0259V182.029C48.0259 182.462 47.9292 182.833 47.7358 183.141C47.5425 183.445 47.2811 183.68 46.9517 183.844C46.6258 184.005 46.2588 184.086 45.8506 184.086C45.403 184.086 45.0073 184.016 44.6636 183.876C44.3198 183.733 44.0495 183.517 43.8525 183.227C43.6592 182.933 43.5625 182.561 43.5625 182.109H44.8623C44.8623 182.331 44.9017 182.514 44.9805 182.657C45.0592 182.797 45.172 182.899 45.3188 182.963C45.4692 183.028 45.6465 183.06 45.8506 183.06C46.0332 183.06 46.189 183.021 46.3179 182.942C46.4504 182.863 46.5506 182.749 46.6187 182.598C46.6903 182.444 46.7261 182.254 46.7261 182.029ZM52.8662 179.026L50.9863 184H49.6758L52.1948 177.743H53.0649L52.8662 179.026ZM54.6011 184L52.7104 179.016L52.5117 177.743H53.3979L55.9116 184H54.6011ZM54.5205 181.68V182.652H50.9434V181.68H54.5205ZM63.0132 177.743V184H61.7134L58.8882 179.687V184H57.5938V177.743H58.8882L61.7134 182.056V177.743H63.0132Z" fill="#949494"/>
<path d="M84.9545 159V169" stroke="#655B96"/>
<path d="M77.6113 177.743V184H76.3168V177.743H77.6113ZM80.3237 180.401V181.433H77.2621V180.401H80.3237ZM80.6728 177.743V178.774H77.2621V177.743H80.6728ZM86.9848 182.974V184H83.4023V182.974H86.9848ZM83.8105 177.743V184H82.5161V177.743H83.8105ZM86.5229 180.251V181.277H83.4023V180.251H86.5229ZM86.9741 177.743V178.774H83.4023V177.743H86.9741ZM91.433 181.266H89.7036L89.6928 180.375H91.2343C91.4671 180.375 91.664 180.344 91.8251 180.283C91.9863 180.222 92.108 180.135 92.1904 180.02C92.2763 179.902 92.3193 179.759 92.3193 179.59C92.3193 179.401 92.2781 179.245 92.1957 179.123C92.1134 179.001 91.9898 178.914 91.8251 178.86C91.6604 178.803 91.4563 178.774 91.2128 178.774H90.1386V184H88.8442V177.743H91.143C91.5297 177.743 91.8735 177.778 92.1743 177.85C92.4786 177.918 92.7382 178.022 92.9531 178.162C93.1679 178.301 93.3308 178.48 93.4418 178.699C93.5564 178.914 93.6137 179.168 93.6137 179.461C93.6137 179.716 93.5493 179.952 93.4203 180.17C93.295 180.389 93.1017 180.566 92.8403 180.702C92.5789 180.838 92.2405 180.913 91.8251 180.928L91.433 181.266ZM91.374 184H89.3383L89.8647 182.974H91.374C91.6246 182.974 91.8305 182.938 91.9916 182.867C92.1564 182.795 92.2781 182.698 92.3569 182.577C92.4356 182.451 92.475 182.308 92.475 182.147C92.475 181.968 92.4392 181.814 92.3676 181.685C92.2996 181.553 92.1886 181.451 92.0346 181.379C91.8806 181.304 91.6801 181.266 91.433 181.266H90.1118L90.1171 180.375H91.7929L92.0883 180.724C92.4858 180.716 92.808 180.786 93.0551 180.933C93.3022 181.076 93.483 181.263 93.5976 181.492C93.7158 181.721 93.7748 181.959 93.7748 182.206C93.7748 182.51 93.7211 182.775 93.6137 183.001C93.5063 183.223 93.3505 183.409 93.1464 183.56C92.9423 183.706 92.6917 183.817 92.3945 183.893C92.0973 183.964 91.7571 184 91.374 184Z" fill="#949494"/>
<path d="M117.409 159V169" stroke="#655B96"/>
<path d="M107.294 177.743H108.411L110.222 182.303L112.026 177.743H113.143L110.662 184H109.776L107.294 177.743ZM106.72 177.743H107.815L108.014 182.281V184H106.72V177.743ZM112.628 177.743H113.729V184H112.434V182.281L112.628 177.743ZM118.601 179.026L116.722 184H115.411L117.93 177.743H118.8L118.601 179.026ZM120.336 184L118.446 179.016L118.247 177.743H119.133L121.647 184H120.336ZM120.256 181.68V182.652H116.679V181.68H120.256ZM123.324 177.743H125.789C126.172 177.743 126.516 177.784 126.82 177.866C127.125 177.949 127.382 178.07 127.594 178.231C127.808 178.389 127.971 178.586 128.082 178.822C128.197 179.055 128.254 179.325 128.254 179.633C128.254 179.973 128.193 180.265 128.072 180.509C127.95 180.749 127.778 180.947 127.556 181.105C127.334 181.263 127.073 181.39 126.772 181.486L126.358 181.712H124.183L124.172 180.681H125.805C126.063 180.681 126.276 180.641 126.444 180.562C126.613 180.484 126.74 180.375 126.826 180.235C126.911 180.092 126.954 179.927 126.954 179.741C126.954 179.544 126.911 179.374 126.826 179.23C126.743 179.084 126.614 178.971 126.439 178.892C126.267 178.813 126.05 178.774 125.789 178.774H124.623V184H123.324V177.743ZM127.116 184L125.569 181.229L126.938 181.218L128.512 183.941V184H127.116Z" fill="#949494"/>
<path d="M150.864 159V169" stroke="#655B96"/>
<path d="M143.875 179.026L141.995 184H140.684L143.203 177.743H144.074L143.875 179.026ZM145.61 184L143.719 179.016L143.52 177.743H144.407L146.92 184H145.61ZM145.529 181.68V182.652H141.952V181.68H145.529ZM151.191 181.792H149.462V180.761H151.191C151.471 180.761 151.698 180.72 151.873 180.638C152.052 180.555 152.183 180.444 152.266 180.305C152.351 180.161 152.394 180 152.394 179.821C152.394 179.635 152.351 179.463 152.266 179.306C152.183 179.148 152.052 179.021 151.873 178.924C151.698 178.824 151.471 178.774 151.191 178.774H149.897V184H148.602V177.743H151.191C151.718 177.743 152.167 177.832 152.539 178.011C152.912 178.19 153.195 178.436 153.388 178.747C153.585 179.055 153.683 179.41 153.683 179.811C153.683 180.111 153.628 180.383 153.517 180.627C153.406 180.87 153.243 181.08 153.028 181.255C152.813 181.427 152.552 181.56 152.244 181.653C151.936 181.746 151.585 181.792 151.191 181.792ZM155.677 177.743H158.142C158.526 177.743 158.869 177.784 159.174 177.866C159.478 177.949 159.736 178.07 159.947 178.231C160.162 178.389 160.325 178.586 160.436 178.822C160.55 179.055 160.608 179.325 160.608 179.633C160.608 179.973 160.547 180.265 160.425 180.509C160.303 180.749 160.132 180.947 159.91 181.105C159.688 181.263 159.426 181.39 159.125 181.486L158.712 181.712H156.536L156.526 180.681H158.159C158.416 180.681 158.629 180.641 158.798 180.562C158.966 180.484 159.093 180.375 159.179 180.235C159.265 180.092 159.308 179.927 159.308 179.741C159.308 179.544 159.265 179.374 159.179 179.23C159.097 179.084 158.968 178.971 158.792 178.892C158.62 178.813 158.404 178.774 158.142 178.774H156.977V184H155.677V177.743ZM159.469 184L157.922 181.229L159.292 181.218L160.866 183.941V184H159.469Z" fill="#949494"/>
<path d="M184.318 159V169" stroke="#655B96"/>
<path d="M174.483 177.743H175.6L177.41 182.303L179.215 177.743H180.332L177.85 184H176.964L174.483 177.743ZM173.908 177.743H175.004L175.202 182.281V184H173.908V177.743ZM179.816 177.743H180.917V184H179.623V182.281L179.816 177.743ZM185.79 179.026L183.91 184H182.599L185.118 177.743H185.989L185.79 179.026ZM187.525 184L185.634 179.016L185.435 177.743H186.322L188.835 184H187.525ZM187.444 181.68V182.652H183.867V181.68H187.444ZM192.129 181.245L193.912 177.743H195.33L193.015 181.916H192.284L192.129 181.245ZM190.979 177.743L192.773 181.277L192.596 181.916H191.876L189.561 177.743H190.979ZM193.074 181.067V184H191.78V181.067H193.074Z" fill="#949494"/>
<path d="M217.773 159V169" stroke="#655B96"/>
<path d="M211.047 182.029V177.743H212.347V182.029C212.347 182.462 212.25 182.833 212.057 183.141C211.864 183.445 211.602 183.68 211.273 183.844C210.947 184.005 210.58 184.086 210.172 184.086C209.724 184.086 209.328 184.016 208.985 183.876C208.641 183.733 208.371 183.517 208.174 183.227C207.98 182.933 207.884 182.561 207.884 182.109H209.183C209.183 182.331 209.223 182.514 209.302 182.657C209.38 182.797 209.493 182.899 209.64 182.963C209.79 183.028 209.968 183.06 210.172 183.06C210.354 183.06 210.51 183.021 210.639 182.942C210.771 182.863 210.872 182.749 210.94 182.598C211.011 182.444 211.047 182.254 211.047 182.029ZM218.326 177.743H219.626V181.868C219.626 182.347 219.515 182.754 219.293 183.087C219.071 183.416 218.768 183.665 218.385 183.833C218.002 184.002 217.565 184.086 217.074 184.086C216.577 184.086 216.135 184.002 215.748 183.833C215.365 183.665 215.064 183.416 214.845 183.087C214.627 182.754 214.518 182.347 214.518 181.868V177.743H215.807V181.868C215.807 182.143 215.857 182.371 215.957 182.55C216.061 182.725 216.208 182.854 216.398 182.937C216.587 183.019 216.813 183.06 217.074 183.06C217.336 183.06 217.56 183.019 217.746 182.937C217.932 182.854 218.075 182.725 218.176 182.55C218.276 182.371 218.326 182.143 218.326 181.868V177.743ZM227.238 177.743V184H225.938L223.113 179.687V184H221.818V177.743H223.113L225.938 182.056V177.743H227.238Z" fill="#949494"/>
<path d="M249.227 159V169" stroke="#655B96"/>
<path d="M243.286 182.029V177.743H244.586V182.029C244.586 182.462 244.489 182.833 244.296 183.141C244.102 183.445 243.841 183.68 243.511 183.844C243.186 184.005 242.819 184.086 242.41 184.086C241.963 184.086 241.567 184.016 241.223 183.876C240.88 183.733 240.609 183.517 240.412 183.227C240.219 182.933 240.122 182.561 240.122 182.109H241.422C241.422 182.331 241.462 182.514 241.54 182.657C241.619 182.797 241.732 182.899 241.879 182.963C242.029 183.028 242.206 183.06 242.41 183.06C242.593 183.06 242.749 183.021 242.878 182.942C243.01 182.863 243.11 182.749 243.178 182.598C243.25 182.444 243.286 182.254 243.286 182.029ZM250.565 177.743H251.865V181.868C251.865 182.347 251.753 182.754 251.531 183.087C251.309 183.416 251.007 183.665 250.624 183.833C250.241 184.002 249.804 184.086 249.313 184.086C248.816 184.086 248.373 184.002 247.987 183.833C247.603 183.665 247.303 183.416 247.084 183.087C246.866 182.754 246.757 182.347 246.757 181.868V177.743H248.046V181.868C248.046 182.143 248.096 182.371 248.196 182.55C248.3 182.725 248.447 182.854 248.636 182.937C248.826 183.019 249.052 183.06 249.313 183.06C249.575 183.06 249.798 183.019 249.985 182.937C250.171 182.854 250.314 182.725 250.414 182.55C250.515 182.371 250.565 182.143 250.565 181.868V177.743ZM258.332 182.974V184H254.943V182.974H258.332ZM255.351 177.743V184H254.057V177.743H255.351Z" fill="#949494"/>
<path d="M280.682 159V169" stroke="#655B96"/>
<path d="M273.489 179.026L271.609 184H270.299L272.818 177.743H273.688L273.489 179.026ZM275.224 184L273.333 179.016L273.134 177.743H274.021L276.534 184H275.224ZM275.143 181.68V182.652H271.566V181.68H275.143ZM281.847 177.743H283.147V181.868C283.147 182.347 283.036 182.754 282.814 183.087C282.592 183.416 282.29 183.665 281.906 183.833C281.523 184.002 281.086 184.086 280.596 184.086C280.098 184.086 279.656 184.002 279.269 183.833C278.886 183.665 278.585 183.416 278.367 183.087C278.148 182.754 278.039 182.347 278.039 181.868V177.743H279.328V181.868C279.328 182.143 279.378 182.371 279.479 182.55C279.583 182.725 279.729 182.854 279.919 182.937C280.109 183.019 280.334 183.06 280.596 183.06C280.857 183.06 281.081 183.019 281.267 182.937C281.453 182.854 281.597 182.725 281.697 182.55C281.797 182.371 281.847 182.143 281.847 181.868V177.743ZM290.609 180.724V183.216C290.505 183.334 290.347 183.461 290.136 183.597C289.925 183.733 289.649 183.85 289.309 183.946C288.969 184.039 288.551 184.086 288.057 184.086C287.628 184.086 287.236 184.02 286.881 183.887C286.53 183.751 286.226 183.554 285.968 183.296C285.71 183.039 285.511 182.723 285.372 182.351C285.236 181.975 285.168 181.547 285.168 181.067V180.675C285.168 180.195 285.234 179.769 285.366 179.397C285.499 179.021 285.687 178.704 285.93 178.446C286.177 178.188 286.473 177.993 286.817 177.861C287.16 177.725 287.543 177.657 287.966 177.657C288.539 177.657 289.01 177.746 289.379 177.925C289.751 178.101 290.036 178.344 290.233 178.656C290.43 178.967 290.553 179.325 290.603 179.73H289.341C289.305 179.515 289.237 179.331 289.137 179.177C289.037 179.019 288.893 178.897 288.707 178.812C288.525 178.726 288.288 178.683 287.998 178.683C287.755 178.683 287.536 178.726 287.343 178.812C287.153 178.894 286.992 179.019 286.86 179.188C286.731 179.356 286.632 179.563 286.564 179.811C286.5 180.054 286.467 180.339 286.467 180.665V181.067C286.467 181.393 286.503 181.681 286.575 181.932C286.65 182.179 286.758 182.387 286.897 182.555C287.04 182.723 287.214 182.851 287.418 182.937C287.626 183.019 287.862 183.06 288.127 183.06C288.482 183.06 288.748 183.024 288.927 182.953C289.106 182.877 289.234 182.808 289.309 182.743V181.653H287.955V180.724H290.609Z" fill="#949494"/>
<path d="M312.636 159V169" stroke="#655B96"/>
<path d="M307.189 182.362C307.189 182.244 307.168 182.138 307.125 182.045C307.085 181.952 307.015 181.868 306.915 181.792C306.818 181.714 306.684 181.64 306.512 181.572C306.344 181.504 306.131 181.44 305.873 181.379C305.501 181.289 305.171 181.189 304.885 181.078C304.602 180.964 304.364 180.831 304.171 180.681C303.977 180.53 303.83 180.353 303.73 180.149C303.633 179.945 303.585 179.707 303.585 179.435C303.585 179.173 303.642 178.935 303.757 178.72C303.872 178.502 304.034 178.314 304.246 178.156C304.457 177.995 304.708 177.872 304.998 177.786C305.288 177.7 305.606 177.657 305.954 177.657C306.459 177.657 306.897 177.739 307.27 177.904C307.642 178.069 307.93 178.296 308.134 178.586C308.342 178.872 308.446 179.205 308.446 179.585H307.151C307.151 179.406 307.105 179.245 307.012 179.102C306.922 178.958 306.79 178.844 306.614 178.758C306.439 178.672 306.219 178.629 305.954 178.629C305.7 178.629 305.49 178.667 305.325 178.742C305.161 178.813 305.037 178.908 304.955 179.026C304.876 179.141 304.837 179.266 304.837 179.402C304.837 179.51 304.86 179.606 304.906 179.692C304.957 179.778 305.035 179.857 305.143 179.929C305.25 180 305.39 180.068 305.562 180.133C305.734 180.197 305.943 180.26 306.19 180.321C306.559 180.407 306.885 180.509 307.168 180.627C307.45 180.745 307.687 180.885 307.877 181.046C308.066 181.203 308.208 181.39 308.301 181.604C308.398 181.816 308.446 182.057 308.446 182.33C308.446 182.605 308.389 182.852 308.274 183.071C308.159 183.286 307.995 183.468 307.78 183.619C307.569 183.769 307.314 183.885 307.017 183.968C306.72 184.047 306.389 184.086 306.024 184.086C305.701 184.086 305.381 184.047 305.062 183.968C304.747 183.889 304.462 183.767 304.208 183.603C303.954 183.438 303.75 183.228 303.596 182.974C303.445 182.716 303.37 182.414 303.37 182.066H304.67C304.67 182.253 304.702 182.414 304.767 182.55C304.835 182.682 304.93 182.792 305.051 182.877C305.177 182.96 305.325 183.021 305.497 183.06C305.669 183.099 305.859 183.119 306.067 183.119C306.328 183.119 306.541 183.085 306.706 183.017C306.874 182.945 306.996 182.852 307.071 182.738C307.15 182.623 307.189 182.498 307.189 182.362ZM314.935 182.974V184H311.353V182.974H314.935ZM311.761 177.743V184H310.466V177.743H311.761ZM314.473 180.251V181.277H311.353V180.251H314.473ZM314.924 177.743V178.774H311.353V177.743H314.924ZM319.383 181.792H317.654V180.761H319.383C319.663 180.761 319.89 180.72 320.066 180.638C320.245 180.555 320.375 180.444 320.458 180.305C320.544 180.161 320.587 180 320.587 179.821C320.587 179.635 320.544 179.463 320.458 179.306C320.375 179.148 320.245 179.021 320.066 178.924C319.89 178.824 319.663 178.774 319.383 178.774H318.089V184H316.795V177.743H319.383C319.91 177.743 320.359 177.832 320.732 178.011C321.104 178.19 321.387 178.436 321.58 178.747C321.777 179.055 321.876 179.41 321.876 179.811C321.876 180.111 321.82 180.383 321.709 180.627C321.598 180.87 321.435 181.08 321.22 181.255C321.005 181.427 320.744 181.56 320.436 181.653C320.128 181.746 319.777 181.792 319.383 181.792Z" fill="#949494"/>
<path d="M344.591 159V169" stroke="#655B96"/>
<path d="M340.406 180.724V181.024C340.406 181.501 340.338 181.927 340.202 182.303C340.066 182.679 339.872 183.001 339.622 183.27C339.375 183.535 339.077 183.737 338.73 183.876C338.383 184.016 338 184.086 337.581 184.086C337.162 184.086 336.779 184.016 336.431 183.876C336.084 183.737 335.783 183.535 335.529 183.27C335.275 183.001 335.078 182.679 334.938 182.303C334.802 181.927 334.734 181.501 334.734 181.024V180.724C334.734 180.247 334.802 179.821 334.938 179.445C335.078 179.069 335.273 178.747 335.524 178.479C335.774 178.21 336.073 178.006 336.421 177.866C336.768 177.727 337.151 177.657 337.57 177.657C337.992 177.657 338.376 177.727 338.719 177.866C339.067 178.006 339.366 178.21 339.616 178.479C339.871 178.747 340.066 179.069 340.202 179.445C340.338 179.821 340.406 180.247 340.406 180.724ZM339.111 181.024V180.713C339.111 180.387 339.077 180.099 339.009 179.848C338.941 179.597 338.839 179.386 338.703 179.214C338.571 179.042 338.41 178.912 338.22 178.822C338.03 178.733 337.813 178.688 337.57 178.688C337.33 178.688 337.113 178.733 336.92 178.822C336.73 178.912 336.569 179.042 336.437 179.214C336.308 179.386 336.207 179.597 336.136 179.848C336.068 180.099 336.034 180.387 336.034 180.713V181.024C336.034 181.347 336.068 181.635 336.136 181.889C336.207 182.14 336.31 182.353 336.442 182.528C336.578 182.7 336.741 182.833 336.931 182.926C337.124 183.015 337.341 183.06 337.581 183.06C337.824 183.06 338.039 183.015 338.225 182.926C338.415 182.833 338.576 182.7 338.709 182.528C338.841 182.353 338.941 182.14 339.009 181.889C339.077 181.635 339.111 181.347 339.111 181.024ZM346.39 181.916H347.69C347.658 182.342 347.533 182.718 347.314 183.044C347.099 183.37 346.798 183.626 346.412 183.812C346.025 183.995 345.558 184.086 345.01 184.086C344.584 184.086 344.201 184.016 343.86 183.876C343.524 183.737 343.236 183.538 342.996 183.28C342.759 183.019 342.577 182.704 342.448 182.335C342.323 181.963 342.26 181.545 342.26 181.083V180.665C342.26 180.203 342.324 179.787 342.453 179.418C342.582 179.046 342.768 178.729 343.012 178.468C343.255 178.203 343.545 178.002 343.882 177.866C344.222 177.727 344.603 177.657 345.026 177.657C345.581 177.657 346.048 177.752 346.428 177.941C346.807 178.128 347.103 178.387 347.314 178.72C347.525 179.053 347.652 179.435 347.695 179.864H346.401C346.38 179.632 346.32 179.427 346.224 179.252C346.127 179.073 345.982 178.933 345.789 178.833C345.595 178.733 345.341 178.683 345.026 178.683C344.783 178.683 344.569 178.726 344.387 178.812C344.204 178.894 344.05 179.019 343.925 179.188C343.803 179.356 343.71 179.563 343.646 179.811C343.585 180.054 343.554 180.337 343.554 180.659V181.083C343.554 181.399 343.581 181.68 343.635 181.927C343.692 182.17 343.78 182.376 343.898 182.544C344.016 182.713 344.167 182.842 344.349 182.931C344.535 183.017 344.756 183.06 345.01 183.06C345.314 183.06 345.563 183.019 345.756 182.937C345.95 182.851 346.098 182.722 346.202 182.55C346.306 182.378 346.369 182.167 346.39 181.916ZM352.573 177.743V184H351.279V177.743H352.573ZM354.657 177.743V178.774H349.222V177.743H354.657Z" fill="#949494"/>
<path d="M377.545 159V169" stroke="#655B96"/>
<path d="M372.963 177.743V184H371.663L368.838 179.687V184H367.544V177.743H368.838L371.663 182.056V177.743H372.963ZM380.682 180.724V181.024C380.682 181.501 380.614 181.927 380.478 182.303C380.342 182.679 380.149 183.001 379.898 183.27C379.651 183.535 379.354 183.737 379.006 183.876C378.659 184.016 378.276 184.086 377.857 184.086C377.438 184.086 377.055 184.016 376.708 183.876C376.36 183.737 376.059 183.535 375.805 183.27C375.551 183.001 375.354 182.679 375.214 182.303C375.078 181.927 375.01 181.501 375.01 181.024V180.724C375.01 180.247 375.078 179.821 375.214 179.445C375.354 179.069 375.549 178.747 375.8 178.479C376.051 178.21 376.35 178.006 376.697 177.866C377.044 177.727 377.427 177.657 377.846 177.657C378.269 177.657 378.652 177.727 378.996 177.866C379.343 178.006 379.642 178.21 379.893 178.479C380.147 178.747 380.342 179.069 380.478 179.445C380.614 179.821 380.682 180.247 380.682 180.724ZM379.388 181.024V180.713C379.388 180.387 379.354 180.099 379.286 179.848C379.218 179.597 379.116 179.386 378.98 179.214C378.847 179.042 378.686 178.912 378.496 178.822C378.306 178.733 378.09 178.688 377.846 178.688C377.606 178.688 377.39 178.733 377.196 178.822C377.007 178.912 376.845 179.042 376.713 179.214C376.584 179.386 376.484 179.597 376.412 179.848C376.344 180.099 376.31 180.387 376.31 180.713V181.024C376.31 181.347 376.344 181.635 376.412 181.889C376.484 182.14 376.586 182.353 376.718 182.528C376.854 182.7 377.017 182.833 377.207 182.926C377.4 183.015 377.617 183.06 377.857 183.06C378.1 183.06 378.315 183.015 378.502 182.926C378.691 182.833 378.852 182.7 378.985 182.528C379.117 182.353 379.218 182.14 379.286 181.889C379.354 181.635 379.388 181.347 379.388 181.024ZM385.19 182.378L386.763 177.743H388.133L385.77 184H384.808L385.19 182.378ZM383.444 177.743L385.002 182.367L385.394 184H384.427L382.069 177.743H383.444Z" fill="#949494"/>
<path d="M410 159V169" stroke="#655B96"/>
<path d="M402.823 184H401.362L401.373 182.974H402.823C403.235 182.974 403.572 182.899 403.833 182.749C404.094 182.595 404.286 182.373 404.408 182.083C404.533 181.792 404.596 181.44 404.596 181.024V180.713C404.596 180.401 404.56 180.126 404.488 179.886C404.42 179.642 404.315 179.438 404.171 179.273C404.028 179.109 403.846 178.985 403.624 178.903C403.405 178.817 403.146 178.774 402.845 178.774H401.335V177.743H402.845C403.292 177.743 403.702 177.814 404.075 177.958C404.451 178.101 404.773 178.305 405.042 178.57C405.314 178.831 405.523 179.145 405.67 179.51C405.82 179.875 405.896 180.28 405.896 180.724V181.024C405.896 181.615 405.765 182.134 405.503 182.582C405.246 183.03 404.886 183.379 404.424 183.629C403.965 183.876 403.432 184 402.823 184ZM402.093 177.743V184H400.798V177.743H402.093ZM412.422 182.974V184H408.84V182.974H412.422ZM409.248 177.743V184H407.954V177.743H409.248ZM411.96 180.251V181.277H408.84V180.251H411.96ZM412.412 177.743V178.774H408.84V177.743H412.412ZM418.203 181.916H419.502C419.47 182.342 419.345 182.718 419.126 183.044C418.912 183.37 418.611 183.626 418.224 183.812C417.837 183.995 417.37 184.086 416.822 184.086C416.396 184.086 416.013 184.016 415.673 183.876C415.336 183.737 415.048 183.538 414.808 183.28C414.572 183.019 414.389 182.704 414.26 182.335C414.135 181.963 414.072 181.545 414.072 181.083V180.665C414.072 180.203 414.137 179.787 414.266 179.418C414.395 179.046 414.581 178.729 414.824 178.468C415.068 178.203 415.358 178.002 415.694 177.866C416.035 177.727 416.416 177.657 416.838 177.657C417.393 177.657 417.861 177.752 418.24 177.941C418.62 178.128 418.915 178.387 419.126 178.72C419.338 179.053 419.465 179.435 419.508 179.864H418.213C418.192 179.632 418.133 179.427 418.036 179.252C417.939 179.073 417.794 178.933 417.601 178.833C417.408 178.733 417.153 178.683 416.838 178.683C416.595 178.683 416.382 178.726 416.199 178.812C416.017 178.894 415.863 179.019 415.737 179.188C415.616 179.356 415.522 179.563 415.458 179.811C415.397 180.054 415.367 180.337 415.367 180.659V181.083C415.367 181.399 415.394 181.68 415.447 181.927C415.505 182.17 415.592 182.376 415.71 182.544C415.829 182.713 415.979 182.842 416.162 182.931C416.348 183.017 416.568 183.06 416.822 183.06C417.127 183.06 417.375 183.019 417.569 182.937C417.762 182.851 417.911 182.722 418.015 182.55C418.118 182.378 418.181 182.167 418.203 181.916Z" fill="#949494"/>
</svg>
